<svg xmlns:xlink="http://www.w3.org/1999/xlink" xmlns="http://www.w3.org/2000/svg" width="80" height="18" viewBox="0 0 80 18" fill="currentColor" class="hidden h-[18px] w-auto min-720:block"><path d="M0.5 0.968994H5.806L9.821 16.491L13.816 0.968994H19.122V16.782H16.438V1.27999L12.36 16.78H7.262L3.184 1.27999V16.78H0.5V0.969994V0.968994ZM26.037 17.032C24.913 17.032 23.935 16.782 23.103 16.282C22.2767 15.7891 21.6117 15.0664 21.189 14.202C20.745 13.314 20.523 12.302 20.523 11.164C20.523 10.027 20.745 9.01399 21.189 8.12599C21.6204 7.2661 22.2928 6.55034 23.124 6.06599C23.956 5.56699 24.927 5.31699 26.037 5.31699C27.133 5.31699 28.09 5.55999 28.908 6.04599C29.7342 6.5112 30.4011 7.21439 30.822 8.06399C31.28 8.93799 31.509 9.95 31.509 11.102C31.509 11.365 31.489 11.642 31.447 11.934H23.165C23.263 13.002 23.568 13.814 24.081 14.368C24.594 14.923 25.253 15.2 26.058 15.2C26.751 15.2 27.299 15.055 27.701 14.764C28.104 14.472 28.409 14.042 28.617 13.474H31.259C30.913 14.653 30.289 15.54 29.387 16.137C28.485 16.733 27.368 17.032 26.037 17.032ZM28.846 10.124C28.804 9.52699 28.658 9.00699 28.409 8.56399C28.1857 8.13311 27.8471 7.77272 27.431 7.52299C27.029 7.27299 26.564 7.14799 26.037 7.14799C25.26 7.14799 24.622 7.39799 24.123 7.89799C23.637 8.39699 23.325 9.13799 23.186 10.124H28.846ZM37.55 16.782C36.842 16.782 36.211 16.664 35.656 16.428C35.1245 16.2108 34.6689 15.8418 34.346 15.367C34.026 14.881 33.866 14.285 33.866 13.577V7.48199H31.662V5.56699H33.868V2.90399H36.468V5.56699H39.132V7.48099H36.469V13.453C36.469 13.966 36.594 14.327 36.843 14.535C37.093 14.743 37.474 14.847 37.988 14.847H39.174V16.782H37.55ZM43.84 17.032C43.1672 17.0401 42.5027 16.8829 41.905 16.574C41.3341 16.2659 40.8535 15.814 40.511 15.263C40.1751 14.6966 40.0024 14.0484 40.012 13.39C40.012 12.586 40.234 11.948 40.678 11.476C41.1443 10.9989 41.7241 10.648 42.363 10.456C43.1091 10.2327 43.8761 10.0866 44.652 10.02L47.627 9.70799V9.51999C47.627 9.07599 47.537 8.67399 47.357 8.31399C47.1942 7.95696 46.9253 7.65876 46.587 7.45999C46.24 7.25199 45.817 7.14799 45.317 7.14799C44.652 7.14799 44.117 7.32199 43.716 7.66799C43.3365 7.98478 43.0849 8.42863 43.008 8.91699H40.387C40.47 8.18199 40.727 7.54399 41.157 7.00299C41.6 6.46199 42.176 6.04599 42.883 5.75399C43.605 5.46299 44.416 5.31699 45.318 5.31699C46.428 5.31699 47.35 5.51199 48.085 5.89999C48.82 6.28799 49.361 6.80899 49.708 7.45999C50.055 8.11199 50.228 8.83399 50.228 9.62399V16.782H47.648V14.556C47.398 15.096 47.114 15.547 46.795 15.908C46.4565 16.2681 46.045 16.5518 45.588 16.74C45.117 16.934 44.534 17.032 43.84 17.032ZM42.655 13.39C42.655 13.806 42.751 14.167 42.945 14.472C43.14 14.764 43.404 14.992 43.736 15.159C44.069 15.311 44.436 15.388 44.839 15.388C45.436 15.388 45.942 15.242 46.358 14.951C46.788 14.646 47.108 14.243 47.315 13.744C47.5298 13.1939 47.6357 12.6074 47.627 12.017V11.351L45.609 11.559C44.985 11.629 44.472 11.719 44.069 11.829C43.681 11.927 43.348 12.1 43.071 12.35C42.793 12.586 42.655 12.933 42.655 13.39ZM52.01 0.968994H54.61V16.782H52.01V0.968994ZM60.199 17.032C59.5262 17.0401 58.8617 16.8829 58.264 16.574C57.6931 16.2658 57.2126 15.8139 56.87 15.263C56.5338 14.6967 56.3607 14.0485 56.37 13.39C56.37 12.586 56.592 11.948 57.036 11.476C57.5026 10.9988 58.0827 10.6478 58.722 10.456C59.4677 10.2327 60.2344 10.0866 61.01 10.02L63.986 9.70799V9.51999C63.986 9.07599 63.896 8.67399 63.716 8.31399C63.5533 7.95692 63.2844 7.65871 62.946 7.45999C62.599 7.25199 62.176 7.14799 61.676 7.14799C61.01 7.14799 60.476 7.32199 60.074 7.66799C59.6948 7.98495 59.4436 8.42877 59.367 8.91699H56.745C56.828 8.18199 57.085 7.54399 57.515 7.00299C57.959 6.46199 58.535 6.04599 59.242 5.75399C59.963 5.46299 60.774 5.31699 61.676 5.31699C62.786 5.31699 63.708 5.51199 64.444 5.89999C65.179 6.28799 65.72 6.80899 66.066 7.45999C66.413 8.11199 66.586 8.83399 66.586 9.62399V16.782H64.006V14.556C63.756 15.096 63.472 15.547 63.153 15.908C62.8148 16.268 62.4036 16.5517 61.947 16.74C61.475 16.934 60.892 17.032 60.199 17.032ZM59.012 13.39C59.012 13.806 59.109 14.167 59.303 14.472C59.497 14.764 59.761 14.992 60.093 15.159C60.427 15.311 60.794 15.388 61.197 15.388C61.793 15.388 62.299 15.242 62.716 14.951C63.1439 14.6484 63.476 14.2296 63.673 13.744C63.8878 13.194 63.9938 12.6074 63.985 12.017V11.351L61.967 11.559C61.342 11.629 60.829 11.719 60.427 11.829C60.038 11.927 59.706 12.1 59.428 12.35C59.151 12.586 59.012 12.933 59.012 13.39ZM74.798 17.032C74.243 17.032 73.708 16.921 73.195 16.699C72.6947 16.476 72.2426 16.1578 71.864 15.762C71.478 15.3636 71.1676 14.8984 70.948 14.389V16.782H68.368V0.968994H70.948V8.20899C71.128 7.68199 71.392 7.20399 71.739 6.77399C72.099 6.32999 72.537 5.97599 73.049 5.71299C73.563 5.44899 74.146 5.31699 74.798 5.31699C75.699 5.31699 76.504 5.56699 77.211 6.06699C77.932 6.56599 78.494 7.25899 78.896 8.14699C79.299 9.03499 79.5 10.04 79.5 11.164C79.5 12.288 79.299 13.3 78.896 14.202C78.494 15.09 77.932 15.783 77.211 16.282C76.504 16.782 75.699 17.032 74.798 17.032ZM70.865 11.164C70.865 11.982 70.983 12.697 71.219 13.307C71.455 13.917 71.795 14.389 72.239 14.722C72.696 15.041 73.237 15.201 73.861 15.201C74.499 15.201 75.041 15.041 75.484 14.722C75.942 14.389 76.282 13.924 76.504 13.328C76.74 12.718 76.857 11.996 76.857 11.164C76.857 10.346 76.739 9.63799 76.504 9.04199C76.282 8.43199 75.942 7.96699 75.484 7.64799C75.04 7.31499 74.499 7.14799 73.861 7.14799C73.237 7.14799 72.696 7.31499 72.238 7.64799C71.794 7.96699 71.455 8.43099 71.218 9.04199C70.983 9.63799 70.865 10.346 70.865 11.164Z" fill="#ADADAD"></path></svg>