<svg xmlns:xlink="http://www.w3.org/1999/xlink" width="102" height="32" viewBox="0 0 102 32" fill="currentColor" xmlns="http://www.w3.org/2000/svg" class="h-[22px] w-auto min-720:h-28"><path d="M53.5229 7.93993C53.5229 9.07226 52.5915 9.99886 51.4526 9.99886C50.3137 9.99886 49.3823 9.07226 49.3823 7.93993C49.3823 6.80846 50.2618 5.88192 51.4526 5.88192C52.6426 5.90752 53.5229 6.83406 53.5229 7.93993ZM45.0334 12.0569C45.0334 12.2371 45.0334 12.5718 45.0334 12.5718C45.0334 12.5718 44.0502 11.3114 41.9539 11.3114C38.5113 11.3114 35.7933 13.9356 35.7933 17.5377C35.7933 21.1405 38.4594 23.7648 41.9539 23.7648C44.0761 23.7648 45.0334 22.4787 45.0334 22.4787V23.0193C45.0334 23.2763 45.215 23.4565 45.4744 23.4565H48.0359V11.6197C48.0359 11.6197 45.6811 11.6197 45.4744 11.6197C45.215 11.6197 45.0334 11.8511 45.0334 12.0569ZM45.0334 19.6478C44.5681 20.343 43.61 20.9347 42.4711 20.9347C40.4527 20.9347 38.8996 19.6734 38.8996 17.5377C38.8996 15.4027 40.4527 14.1414 42.4711 14.1414C43.5841 14.1414 44.5932 14.7588 45.0334 15.4283V19.6478ZM49.9506 11.6197H53.0057V23.4565H49.9506V11.6197ZM95.3744 11.3114C93.2776 11.3114 92.2943 12.5718 92.2943 12.5718V5.93312H89.2409V23.4821C89.2409 23.4821 91.5955 23.4821 91.8032 23.4821C92.0616 23.4821 92.2425 23.2507 92.2425 23.0449V22.5043C92.2425 22.5043 93.2264 23.7904 95.3227 23.7904C98.7647 23.7904 101.482 21.1405 101.482 17.5641C101.509 13.9612 98.7903 11.3114 95.3744 11.3114ZM94.8822 20.9091C93.7174 20.9091 92.7865 20.3172 92.3199 19.6222V15.4027C92.7865 14.7845 93.8216 14.1158 94.8822 14.1158C96.9017 14.1158 98.454 15.3763 98.454 17.512C98.454 19.6478 96.9017 20.9091 94.8822 20.9091ZM87.6875 16.4318V23.4821H84.6329V16.7922C84.6329 14.8366 84.0121 14.039 82.2777 14.039C81.3462 14.039 80.4147 14.5018 79.8195 15.1961V23.4565H76.7644V11.6197H79.172C79.4315 11.6197 79.6124 11.8511 79.6124 12.0569V12.5718C80.4915 11.6453 81.6825 11.3114 82.8473 11.3114C84.1681 11.3114 85.2799 11.6974 86.1864 12.4428C87.2732 13.3183 87.6875 14.4506 87.6875 16.4318ZM69.3881 11.3114C67.2924 11.3114 66.3086 12.5718 66.3086 12.5718V5.93312H63.254V23.4821C63.254 23.4821 65.6098 23.4821 65.8163 23.4821C66.0758 23.4821 66.2574 23.2507 66.2574 23.0449V22.5043C66.2574 22.5043 67.2406 23.7904 69.3369 23.7904C72.7795 23.7904 75.4966 21.1405 75.4966 17.5641C75.549 13.9612 72.8569 11.3114 69.3881 11.3114ZM68.8971 20.9091C67.7323 20.9091 66.8008 20.3172 66.3347 19.6222V15.4027C66.8008 14.7845 67.8358 14.1158 68.8971 14.1158C70.9154 14.1158 72.4683 15.3763 72.4683 17.512C72.4683 19.6478 70.9154 20.9091 68.8971 20.9091ZM60.6411 11.3114C61.572 11.3114 62.0386 11.4651 62.0386 11.4651V14.2704C62.0386 14.2704 59.5019 13.4207 57.9229 15.2225V23.5078H54.8693V11.6197C54.8693 11.6197 57.2249 11.6197 57.4316 11.6197C57.6903 11.6197 57.871 11.8511 57.871 12.0569V12.5718C58.4668 11.9032 59.7084 11.3114 60.6411 11.3114ZM29.0645 22.401C28.9088 22.015 28.754 21.6033 28.5992 21.2695C28.3398 20.7033 28.0812 20.1628 27.8737 19.6734L27.8478 19.6478C25.6745 14.9134 23.3189 10.1278 20.8335 5.4182L20.7306 5.23801C20.4712 4.77516 20.2126 4.26022 19.98 3.74614C19.6695 3.17996 19.3591 2.58815 18.8411 2.02197C17.8319 0.761523 16.3825 0.0664062 14.8294 0.0664062C13.2512 0.0664062 11.8269 0.761529 10.7658 1.94512C10.3005 2.51131 9.93817 3.1031 9.62689 3.66843C9.36833 4.18336 9.10977 4.67268 8.87629 5.16116L8.77331 5.34134C6.33991 10.0757 3.95834 14.8622 1.75916 19.5709L1.73322 19.6222C1.50057 20.1372 1.26792 20.6513 1.00852 21.2174C0.853698 21.5521 0.698074 21.9382 0.542439 22.3498C0.128219 23.5078 -0.000671142 24.6144 0.154155 25.7468C0.491367 28.114 2.09555 30.0952 4.26961 30.9696C5.09804 31.3044 5.95161 31.4846 6.83196 31.4846C7.09052 31.4846 7.40179 31.459 7.66041 31.4333C8.69471 31.3044 9.78253 30.9696 10.8177 30.3523C12.1122 29.6314 13.3541 28.5768 14.7515 27.0841C16.1491 28.6025 17.4177 29.6314 18.6855 30.3523C19.7214 30.944 20.8084 31.3044 21.8436 31.4333C22.1029 31.459 22.4126 31.4846 22.672 31.4846C23.5515 31.4846 24.4578 31.33 25.2343 30.9696C27.4603 30.0952 29.0126 28.0619 29.3498 25.7468C29.6084 24.6657 29.4787 23.559 29.0645 22.401ZM14.7775 24.0226C13.0696 21.8869 11.9566 19.8536 11.5683 18.156C11.4127 17.4351 11.3867 16.7922 11.4654 16.2259C11.5165 15.711 11.7239 15.2738 11.9826 14.9134C12.5775 14.0646 13.5867 13.524 14.7775 13.524C15.9675 13.524 17.0034 14.039 17.5733 14.9134C17.8319 15.2995 18.0126 15.7366 18.0905 16.2259C18.1942 16.7922 18.1431 17.4607 17.9875 18.156C17.5992 19.8536 16.4855 21.8613 14.7775 24.0226ZM27.4084 25.5146C27.1758 27.1618 26.0879 28.5768 24.5348 29.1942C23.7842 29.5034 22.9565 29.6058 22.1281 29.5034C21.3264 29.4001 20.5498 29.1686 19.7214 28.6801C18.5825 28.0619 17.4436 27.0841 16.0972 25.6178C18.1942 23.0705 19.462 20.7289 19.9289 18.6444C20.1615 17.6666 20.1867 16.7922 20.0829 15.968C19.9541 15.1705 19.6687 14.4506 19.2294 13.8323C18.2461 12.4172 16.59 11.5941 14.7515 11.5941C12.9139 11.5941 11.257 12.4428 10.2738 13.8323C9.83361 14.4506 9.54992 15.1961 9.42017 15.968C9.29049 16.7922 9.31725 17.6922 9.57581 18.6444C10.0411 20.7289 11.3616 23.0961 13.406 25.6434C12.1122 27.0841 10.9474 28.0619 9.78253 28.7058C8.95408 29.1686 8.17834 29.4257 7.37584 29.529C6.52068 29.6314 5.69303 29.5034 4.96835 29.2199C3.41603 28.6025 2.30226 27.1618 2.09555 25.5402C1.99179 24.7425 2.06962 23.9706 2.38008 23.0961C2.48384 22.7869 2.63947 22.4787 2.79429 22.0927C3.02775 21.5777 3.2604 21.0636 3.51898 20.5231L3.54493 20.471C5.71898 15.7887 8.07379 10.9766 10.5072 6.3191L10.6102 6.13897C10.8695 5.67609 11.1282 5.16116 11.3616 4.69831C11.6202 4.18336 11.9047 3.72052 12.2411 3.3089C12.9139 2.56255 13.7942 2.15092 14.7775 2.15092C15.7608 2.15092 16.6411 2.56255 17.3139 3.3089C17.6503 3.72052 17.9349 4.18336 18.1942 4.69831C18.4528 5.16116 18.7114 5.67609 18.9448 6.13897L19.0478 6.3191C21.4553 11.0023 23.8101 15.8143 25.9841 20.4975V20.5231C26.2435 21.0372 26.4502 21.6033 26.7088 22.0927C26.8645 22.4787 27.0201 22.7869 27.123 23.0961C27.4343 23.8937 27.5373 24.6913 27.4084 25.5146Z" fill="#ADADAD"></path></svg>