<svg xmlns:xlink="http://www.w3.org/1999/xlink" width="155" height="34" viewBox="0 0 155 34" fill="currentColor" xmlns="http://www.w3.org/2000/svg" class="hidden h-[26px] w-auto min-1280:block"><path d="M41.9739 6.97815H44.5868V14.2053C45.6709 12.6209 47.0885 11.8704 48.8397 11.8704C51.2302 11.8704 52.5923 13.1768 52.5923 15.762V24.6292H49.9794V16.4569C49.9794 14.6779 49.3123 14.1497 48.0058 14.1497C47.1997 14.1497 46.4214 14.6223 45.6987 15.5674C44.976 16.5125 44.5868 17.7633 44.5868 19.32V24.6292H41.9739V6.97815Z" fill="#ADADAD"></path><path d="M65.769 19.0987H56.8184C56.8184 21.0723 57.9581 22.5733 59.9316 22.5733C61.3493 22.5733 62.6279 21.795 63.2395 20.4608L65.4632 21.3225C64.1846 23.7964 62.7113 24.8805 59.9316 24.8805C55.7899 24.8805 54.0387 21.3781 54.0387 18.4038C54.0387 15.4295 55.7621 11.9271 59.9316 11.9271C63.9622 11.9271 65.7412 15.2072 65.7412 17.9868V19.0987H65.769ZM56.9018 16.9306H63.0171C62.7947 15.3461 61.7384 14.2065 59.9594 14.2065C58.2916 14.1509 57.2076 15.2905 56.9018 16.9306Z" fill="#ADADAD"></path><path d="M86.1996 11.8704C86.8111 11.8704 87.4504 12.0372 88.1176 12.3707C88.7847 12.7043 89.2572 13.0379 89.5908 13.4548V6.97815H92.2037V24.6292H89.5908V23.1837C89.0905 23.9898 87.7006 24.8515 86.144 24.8515C82.447 24.8515 80.5012 22.461 80.5012 18.3749C80.5568 14.3721 82.5026 11.8704 86.1996 11.8704ZM83.2809 18.3471C83.2809 19.6257 83.5867 20.6542 84.1704 21.4047C84.7541 22.1552 85.5603 22.5166 86.5054 22.5166C87.4505 22.5166 88.2288 22.1274 88.8403 21.4047C89.424 20.6264 89.7298 19.6257 89.7298 18.3471C89.7298 17.0684 89.424 16.0399 88.8403 15.3172C88.2566 14.5389 87.4505 14.1775 86.5054 14.1775C85.5603 14.1775 84.7819 14.5667 84.1704 15.3172C83.5867 16.0399 83.2809 17.0962 83.2809 18.3471Z" fill="#ADADAD"></path><path d="M102.155 13.8451L100.515 15.2905C99.9311 14.5122 99.1806 14.1509 98.3189 14.1509C97.624 14.1509 97.0681 14.6234 97.0681 15.4017C97.0681 15.6797 97.207 15.9577 97.4016 16.18C97.8464 16.6248 98.2355 16.7916 99.3196 17.2085C100.181 17.5421 100.57 17.6811 101.265 18.1258C102.266 18.7095 102.739 19.4878 102.85 20.8221C102.878 21.9062 102.433 22.9347 101.655 23.6574C100.848 24.4357 99.8199 24.7971 98.4857 24.7971C96.0674 24.7971 94.3996 23.2404 93.5934 21.4336L95.7894 20.2384C96.4565 21.7672 97.3738 22.5177 98.5691 22.5177C99.7088 22.5177 100.265 21.9896 100.265 20.8777C100.265 20.4329 100.098 20.155 99.6254 19.877C99.4308 19.738 99.2084 19.6268 98.986 19.5157C98.5969 19.3489 97.6796 19.0153 97.2904 18.8485C95.4836 18.098 94.5663 16.9583 94.5663 15.4017C94.5385 14.4288 94.9555 13.5115 95.6782 12.8722C96.4009 12.1773 97.3182 11.8159 98.4579 11.8159C99.9589 11.8715 101.349 12.622 102.155 13.8451Z" fill="#ADADAD"></path><path d="M110.522 24.8254C109.049 24.8254 107.77 24.1304 107.131 23.2409V29.7176H104.518V12.0666H107.131V13.4843C107.631 12.6781 109.021 11.8442 110.577 11.8442C114.274 11.8442 116.22 14.2348 116.22 18.3209C116.22 22.3514 114.247 24.8254 110.522 24.8254ZM113.44 18.3765C113.44 17.0978 113.135 16.0694 112.551 15.3466C111.967 14.5683 111.161 14.207 110.216 14.207C109.271 14.207 108.493 14.5961 107.881 15.3466C107.297 16.0972 106.992 17.0978 106.992 18.3765C106.992 19.6552 107.297 20.6836 107.881 21.4342C108.465 22.1847 109.271 22.546 110.216 22.546C111.161 22.546 111.939 22.1569 112.551 21.4342C113.162 20.6558 113.44 19.6274 113.44 18.3765Z" fill="#ADADAD"></path><path d="M142.015 21.3785C140.986 23.7134 139.18 24.8531 136.567 24.8531C134.676 24.8531 133.175 24.2416 132.147 23.0185C131.118 21.7677 130.618 20.2388 130.618 18.3765C130.618 16.5141 131.118 14.9852 132.147 13.7622C133.175 12.5113 134.649 11.8998 136.567 11.8998C139.207 11.8998 140.986 13.0395 142.015 15.3744L139.68 16.3751C139.041 14.9296 137.984 14.2069 136.567 14.2069C134.454 14.2069 133.398 15.8747 133.398 18.4043C133.398 20.9338 134.454 22.6016 136.567 22.6016C138.012 22.6016 139.041 21.8789 139.68 20.4334L142.015 21.3785Z" fill="#ADADAD"></path><path d="M154.607 19.0987H145.657C145.657 21.0723 146.796 22.5733 148.77 22.5733C150.215 22.5733 151.494 21.7394 152.078 20.4608L154.302 21.3225C153.023 23.7964 151.55 24.8805 148.77 24.8805C144.628 24.8805 142.877 21.3781 142.877 18.4038C142.877 15.4295 144.601 11.9271 148.77 11.9271C152.801 11.9271 154.58 15.2072 154.58 17.9868V19.0987H154.607ZM145.74 16.9306H151.855C151.633 15.3461 150.577 14.2065 148.798 14.2065C147.13 14.1509 146.046 15.2905 145.74 16.9306Z" fill="#ADADAD"></path><path d="M72.9395 11.8998C73.551 11.8998 74.1904 12.0666 74.8575 12.4001C75.5246 12.7337 75.9972 13.0673 76.3307 13.4842V12.0944H78.9436V24.6863H76.7755L76.3307 23.2409C75.8304 24.047 74.4405 24.9087 72.8839 24.9087C69.1869 24.9087 67.2411 22.5182 67.2411 18.432C67.2411 14.4015 69.2147 11.8998 72.9395 11.8998ZM69.993 18.3765C69.993 19.6551 70.2988 20.6836 70.8825 21.4341C71.4663 22.1846 72.2724 22.546 73.2175 22.546C74.1626 22.546 74.9409 22.1568 75.5524 21.4341C76.1361 20.6558 76.4419 19.6551 76.4419 18.3765C76.4419 17.0978 76.1361 16.0693 75.5524 15.3466C74.9687 14.5683 74.1626 14.2069 73.2175 14.2069C72.2724 14.2069 71.4941 14.5961 70.8825 15.3466C70.2988 16.0693 69.993 17.0978 69.993 18.3765Z" fill="#ADADAD"></path><path d="M123.141 11.8998C123.753 11.8998 124.392 12.0666 125.059 12.4001C125.726 12.7337 126.199 13.0673 126.533 13.4842V12.0944H129.145V24.6863H126.977L126.533 23.2409C126.032 24.047 124.642 24.9087 123.086 24.9087C119.389 24.9087 117.443 22.5182 117.443 18.432C117.443 14.4015 119.417 11.8998 123.141 11.8998ZM120.195 18.3765C120.195 19.6551 120.501 20.6836 121.084 21.4341C121.668 22.1846 122.474 22.546 123.419 22.546C124.364 22.546 125.143 22.1568 125.754 21.4341C126.338 20.6558 126.644 19.6551 126.644 18.3765C126.644 17.0978 126.338 16.0693 125.754 15.3466C125.171 14.5683 124.364 14.2069 123.419 14.2069C122.474 14.2069 121.696 14.5961 121.084 15.3466C120.501 16.0693 120.195 17.0978 120.195 18.3765Z" fill="#ADADAD"></path><path d="M33.9133 16.764C34.3024 22.101 31.8007 25.1309 30.2997 27.2434C27.9648 29.6896 25.0183 33.0252 17.4853 33.2198C11.0921 33.4699 7.97882 30.6624 5.36592 28.2719C1.91911 24.5193 1.02961 22.2956 0.890624 16.7918C0.862827 13.4006 2.19708 10.0372 4.47642 7.06291C7.67306 2.55982 12.8155 1.03099 17.5131 0.697432C22.461 0.530651 26.4081 3.00457 29.1044 5.67307C32.4956 9.25886 33.5797 12.3443 33.9133 16.764Z" fill="#ADADAD"></path></svg>