<svg xmlns:xlink="http://www.w3.org/1999/xlink" width="89" height="19" viewBox="0 0 89 19" fill="currentColor" xmlns="http://www.w3.org/2000/svg" class="hidden h-16 w-auto min-1280:block"><path d="M32.5547 1.26245H35.9075L41.6096 11.597L47.3117 1.26245H50.5924V18.244H47.8569V5.22896L42.8567 14.2412H40.2905L35.2902 5.22896V18.244H32.5547V1.26245Z" fill="#ADADAD"></path><path d="M59.4156 18.5471C58.1484 18.5471 57.0343 18.2661 56.0739 17.7041C55.1135 17.1421 54.3648 16.3638 53.8286 15.3692C53.2916 14.3745 53.0234 13.2343 53.0234 11.9486C53.0234 10.6467 53.2856 9.49445 53.81 8.49166C54.3352 7.48909 55.063 6.70472 55.9952 6.13847C56.9281 5.57259 57.9991 5.28958 59.2098 5.28943C60.4123 5.28943 61.447 5.57445 62.3153 6.1445C63.1828 6.71469 63.8505 7.51328 64.3184 8.54018C64.7864 9.56723 65.0203 10.7721 65.0203 12.1548V12.9068H55.7352C55.9046 13.942 56.3228 14.7567 56.9883 15.3509C57.6538 15.9453 58.4953 16.2424 59.5121 16.2424C60.3277 16.2424 61.0296 16.1211 61.6186 15.8785C62.2076 15.6359 62.7609 15.268 63.2771 14.7747L64.7299 16.5577C63.2853 17.8841 61.5138 18.5473 59.4156 18.5471ZM61.4128 8.47335C60.8401 7.88723 60.0892 7.5941 59.1615 7.59395C58.2576 7.59395 57.5008 7.89319 56.8917 8.49166C56.2819 9.09006 55.8964 9.89468 55.7352 10.9054H62.394C62.3131 9.87034 61.9862 9.0597 61.4128 8.47335Z" fill="#ADADAD"></path><path d="M68.3468 7.83675H65.8281V5.59273H68.3468V1.8811H70.9858V5.59273H74.811V7.83675H70.9858V13.5255C70.9858 14.4715 71.147 15.1467 71.4701 15.5511C71.7924 15.9555 72.3458 16.1577 73.1286 16.1575C73.4755 16.1575 73.7696 16.1434 74.0125 16.1151C74.2546 16.0869 74.5205 16.0485 74.811 15.9999V18.2196C74.4797 18.3156 74.1417 18.3886 73.8001 18.438C73.4094 18.4956 73.015 18.5239 72.6198 18.5228C69.7706 18.5228 68.346 16.9622 68.3468 13.8408V7.83675Z" fill="#ADADAD"></path><path d="M88.5478 18.2438H85.9571V16.4729C85.4973 17.1361 84.912 17.6475 84.2019 18.0073C83.4919 18.367 82.6845 18.547 81.7805 18.5472C80.6672 18.5472 79.6801 18.2621 78.8207 17.6919C77.9613 17.1218 77.2854 16.3375 76.793 15.3388C76.3006 14.3401 76.0547 13.1979 76.0547 11.9122C76.0547 10.6185 76.3043 9.47421 76.8049 8.47946C77.3055 7.48493 77.9977 6.70465 78.8816 6.13847C79.7648 5.57259 80.7801 5.28958 81.9262 5.28943C82.7892 5.28943 83.5639 5.45724 84.2502 5.79287C84.9269 6.12083 85.5129 6.61021 85.9571 7.21799V5.59276H88.5478V18.2438ZM85.9088 10.02C85.6265 9.30029 85.1801 8.73218 84.5711 8.31574C83.962 7.89929 83.2572 7.69114 82.4587 7.69114C81.3282 7.69114 80.4288 8.07112 79.7588 8.83123C79.0888 9.59142 78.7539 10.6184 78.7539 11.9122C78.7539 13.2143 79.0769 14.2453 79.7224 15.0053C80.3678 15.7654 81.2436 16.1455 82.3495 16.1455C83.1651 16.1455 83.8907 15.9352 84.5287 15.5146C85.166 15.0944 85.6265 14.5284 85.9088 13.8165V10.02Z" fill="#ADADAD"></path><path d="M2.9771 12.4762C2.9771 13.5029 3.20141 14.2912 3.49554 14.7681C3.88102 15.3928 4.45589 15.6574 5.04192 15.6574C5.79804 15.6574 6.48956 15.4694 7.8228 13.6226C8.89013 12.1423 10.1484 10.0646 10.9951 8.76193L12.4286 6.55512C13.4239 5.02247 14.5766 3.31873 15.898 2.1639C16.9772 1.22132 18.1411 0.697632 19.3124 0.697632C21.2785 0.697632 23.1517 1.83936 24.5852 3.98076C26.1546 6.32599 26.916 9.28003 26.916 12.3284C26.916 14.1407 26.5595 15.4723 25.9526 16.5242C25.3666 17.5416 24.2242 18.5581 22.3027 18.5581V15.6574C23.9479 15.6574 24.3587 14.1425 24.3587 12.4089C24.3587 9.93834 23.7838 7.19661 22.5174 5.23754C21.6187 3.848 20.4541 2.99888 19.1721 2.99888C17.7861 2.99888 16.6712 4.04625 15.4174 5.91363C14.7512 6.90578 14.0671 8.11486 13.2991 9.47918L12.4538 10.9801C10.7552 13.9976 10.3244 14.6849 9.4754 15.8192C7.98693 17.8054 6.71534 18.5581 5.04192 18.5581C3.05729 18.5581 1.80204 17.6969 1.02438 16.399C0.389328 15.3414 0.078125 13.9537 0.078125 12.3724L2.9771 12.4762Z" fill="#ADADAD"></path><path d="M2.36719 4.18556C3.69597 2.13302 5.61376 0.697632 7.81379 0.697632C9.08761 0.697632 10.354 1.07538 11.6768 2.15735C13.1237 3.34024 14.6649 5.28807 16.5886 8.49826L17.2787 9.65034C18.9432 12.4294 19.8909 13.8592 20.445 14.5334C21.1581 15.3993 21.6572 15.6574 22.3064 15.6574C23.9516 15.6574 24.3623 14.1425 24.3623 12.4089L26.9196 12.3284C26.9196 14.1407 26.5631 15.4723 25.9563 16.5242C25.3702 17.5416 24.2279 18.5581 22.3064 18.5581C21.1113 18.5581 20.0529 18.2982 18.883 17.1919C17.9828 16.3429 16.931 14.8345 16.1222 13.4786L13.715 9.45023C12.5072 7.4285 11.3998 5.92107 10.7581 5.23851C10.0688 4.50444 9.18195 3.61797 7.76701 3.61797C6.62168 3.61797 5.64941 4.4231 4.83535 5.65458L2.36719 4.18556Z" fill="#ADADAD"></path><path d="M7.76337 3.61797C6.61879 3.61797 5.64579 4.4231 4.83248 5.65458C3.68121 7.39486 2.9771 9.98693 2.9771 12.4762C2.9771 13.5029 3.20141 14.2912 3.49554 14.7681L1.02438 16.3989C0.389328 15.3414 0.078125 13.9537 0.078125 12.3724C0.078125 9.49696 0.865461 6.4999 2.36359 4.18556C3.69237 2.13302 5.61091 0.697632 7.8102 0.697632L7.76337 3.61797Z" fill="#ADADAD"></path></svg>