<svg xmlns:xlink="http://www.w3.org/1999/xlink" width="136" height="34" viewBox="0 0 136 34" fill="currentColor" xmlns="http://www.w3.org/2000/svg" class="h-20 w-auto min-720:h-24"><path d="M53.2159 12.3573H57.4799V25.7544H53.2159V12.3573Z" fill="#ADADAD"></path><path d="M58.3703 12.3572H62.4773V14.1888H62.5557C63.5498 12.7496 64.8316 11.9648 66.689 11.9648C69.6187 11.9648 71.3452 14.058 71.3452 17.041V25.7543H67.0813V17.9045C67.0813 16.4914 66.375 15.5232 64.9886 15.5232C63.576 15.5232 62.6342 16.7008 62.6342 18.3492V25.7543H58.3703V12.3572Z" fill="#ADADAD"></path><path d="M57.9056 8.77301C57.9056 7.35995 56.7604 6.21458 55.3478 6.21458C53.9353 6.21458 52.7901 7.35995 52.7901 8.77301C52.7901 10.1859 53.9353 11.3313 55.3478 11.3313C56.7604 11.3313 57.9056 10.1859 57.9056 8.77301Z" fill="#ADADAD"></path><path d="M101.334 12.1638C101.213 12.1529 101.073 12.148 100.91 12.148C99.288 12.148 98.1894 12.8544 97.2476 14.4506H97.1692V12.3573H93.0883V25.7543H97.3522V19.7361C97.3522 16.9476 98.8961 15.6555 101.334 15.8809V12.1638Z" fill="#ADADAD"></path><path d="M122.259 17.3026C120.559 16.9887 119.041 16.8579 119.041 15.9159C119.041 15.0785 119.853 14.6861 120.899 14.6861C122.076 14.6861 122.887 15.0524 123.044 16.2561H126.968C126.759 13.6133 124.718 11.9648 120.925 11.9648C117.76 11.9648 115.144 13.4301 115.144 16.2561C115.144 19.3958 117.629 20.0239 119.957 20.4165C121.736 20.7305 123.358 20.8613 123.358 22.0649C123.358 22.9284 122.547 23.3994 121.265 23.3994C119.979 23.3994 119.129 22.8552 118.868 21.751H114.805C115.104 24.505 117.521 26.173 121.291 26.173C124.797 26.173 127.386 24.6554 127.386 21.7248C127.386 18.2969 124.613 17.6951 122.259 17.3026Z" fill="#ADADAD"></path><path d="M107.949 15C109.335 15 110.329 16.0205 110.486 17.6167H105.202C105.49 16.0205 106.327 15 107.949 15ZM108.184 23.0852C106.431 23.0852 105.437 21.9602 105.176 20.1547H114.802C114.829 17.4335 114.044 15.1047 112.448 13.6395C111.297 12.5928 109.78 11.9648 107.87 11.9648C103.789 11.9648 100.99 15.0261 100.99 19.0297C100.99 23.0852 103.711 26.1469 108.132 26.1469C109.832 26.1469 111.192 25.702 112.317 24.917C113.494 24.1059 114.279 22.9546 114.567 21.751H110.408C110.041 22.5883 109.309 23.0852 108.184 23.0852Z" fill="#ADADAD"></path><path d="M134.896 22.5952C134.698 22.6029 134.433 22.6144 134.189 22.6144C133.274 22.6144 132.698 22.3527 132.698 21.306V15.0261H134.896V12.3572H132.698V8.11832H128.539V12.3572H127.23V15.0261H128.539V22.2219C128.539 25.1002 130.318 25.9113 132.803 25.9113C133.751 25.9113 134.468 25.8402 134.896 25.7567V22.5952Z" fill="#ADADAD"></path><path d="M78.9599 22.6012C78.7898 22.6078 78.5935 22.6144 78.41 22.6144C77.4946 22.6144 76.919 22.3527 76.919 21.306V15.0261H78.9599V12.3572H76.919V8.11832H72.7597V12.3572H71.3727V15.0261H72.7597V22.2219C72.7597 25.1002 74.5384 25.9113 77.0236 25.9113C77.8645 25.9113 78.5229 25.8553 78.9599 25.7844V22.6012Z" fill="#ADADAD"></path><path d="M88.2476 17.6167C88.0907 16.0206 87.0965 15 85.7101 15C84.0882 15 83.2512 16.0206 82.9634 17.6167H88.2476ZM78.7518 19.0297C78.7518 15.0262 81.5508 11.9649 85.6317 11.9649C87.5412 11.9649 89.0585 12.5928 90.2095 13.6395C91.8053 15.1048 92.5899 17.4335 92.5638 20.1548H82.9374C83.1988 21.9602 84.1929 23.0854 85.9456 23.0854C87.0704 23.0854 87.8029 22.5883 88.169 21.751H92.3284C92.0406 22.9546 91.2559 24.1059 90.0786 24.9171C88.9539 25.702 87.5936 26.1469 85.8932 26.1469C81.4723 26.1469 78.7518 23.0854 78.7518 19.0297Z" fill="#ADADAD"></path><path d="M45.8109 15.8374C47.4852 15.8374 48.4269 14.843 48.4269 13.3514C48.4269 11.8601 47.4589 10.9443 45.8109 10.9443H42.5408V15.8374H45.8109ZM38.224 7.04552H45.6285C47.9043 7.04552 49.5785 7.67344 50.7295 8.77247C51.9329 9.89751 52.613 11.4938 52.613 13.3777C52.613 16.9624 50.1279 19.5006 46.2824 19.5006H42.5408V25.7543H38.224V7.04552Z" fill="#ADADAD"></path><path d="M16.2719 0.859177C7.38087 0.859177 0.173218 8.06875 0.173218 16.9621C0.173218 23.7841 4.41655 29.616 10.4051 31.9623C10.2644 30.6883 10.1372 28.7289 10.4609 27.338C10.7535 26.0812 12.3487 19.3338 12.3487 19.3338C12.3487 19.3338 11.8671 18.3691 11.8671 16.943C11.8671 14.7039 13.1646 13.0322 14.7801 13.0322C16.1536 13.0322 16.817 14.0637 16.817 15.3005C16.817 16.6821 15.9376 18.7478 15.4838 20.6621C15.1045 22.2648 16.2873 23.5719 17.8677 23.5719C20.729 23.5719 22.9284 20.5541 22.9284 16.198C22.9284 12.3424 20.1588 9.64668 16.2039 9.64668C11.6233 9.64668 8.93462 13.0833 8.93462 16.6349C8.93462 18.0189 9.46763 19.503 10.1327 20.3098C10.2643 20.4692 10.2836 20.6089 10.2444 20.7716C10.1222 21.2802 9.85059 22.374 9.79728 22.5979C9.72707 22.8926 9.56396 22.9552 9.25886 22.8132C7.24825 21.877 5.99115 18.9366 5.99115 16.5748C5.99115 11.4952 9.68089 6.8302 16.6282 6.8302C22.2128 6.8302 26.5527 10.8108 26.5527 16.1305C26.5527 21.6802 23.0545 26.1465 18.1989 26.1465C16.5676 26.1465 15.034 25.2988 14.5091 24.2975C14.5091 24.2975 13.7019 27.372 13.5061 28.1255C13.1427 29.5242 12.1616 31.2774 11.5053 32.347C13.0115 32.8135 14.6123 33.0651 16.2719 33.0651C25.163 33.0651 32.3706 25.8555 32.3706 16.9621C32.3706 8.06875 25.163 0.859177 16.2719 0.859177Z" fill="#ADADAD"></path></svg>