<svg xmlns:xlink="http://www.w3.org/1999/xlink" width="106" height="25" viewBox="0 0 106 25" fill="currentColor" xmlns="http://www.w3.org/2000/svg" class="h-12 w-auto min-720:h-16"><path d="M0.5 12.3V24.6H2.78675H5.0735V19.6V14.58L6.82668 14.64L8.57986 14.7L11.2668 19.64L13.9347 24.58L16.5644 24.6C17.9936 24.6 19.1751 24.56 19.1751 24.5C19.1751 24.44 17.9555 22.16 16.4882 19.44C15.0018 16.72 13.7632 14.44 13.725 14.38C13.6869 14.3 14.1443 14 14.7541 13.68C16.1452 12.96 17.5554 11.58 18.1652 10.34C19.0036 8.57998 19.0417 5.47998 18.2414 3.83998C17.4029 2.13998 15.4592 0.699976 13.3058 0.219976C12.696 0.0799761 10.0091 -2.38642e-05 6.40744 -2.38642e-05H0.5V12.3ZM12.6388 4.59998C13.6869 5.09998 14.2205 5.99998 14.2205 7.29998C14.2205 8.49998 13.7441 9.41998 12.8485 9.93998C12.3149 10.24 11.6479 10.32 8.65608 10.36L5.0735 10.44V7.31998V4.19998H8.46552C11.3811 4.19998 11.9528 4.25998 12.6388 4.59998Z" fill="#ADADAD"></path><path d="M73.2949 12.5V24.6H75.4864H77.6779V12.5V0.399974H75.4864H73.2949V12.5Z" fill="#ADADAD"></path><path d="M97.5345 11.74C97.5916 21.06 97.5916 21.1 98.0299 22.04C98.5254 23.1 99.7069 24.3 100.66 24.72C101.079 24.9 102.032 25 103.404 25H105.5V23V21H104.28C103.347 21 102.965 20.9 102.565 20.58L102.07 20.18V15.48V10.8H103.785H105.5V8.9V7H103.785H102.07V4.7V2.4H99.764H97.4773L97.5345 11.74Z" fill="#ADADAD"></path><path d="M25.0445 6.98002C23.5009 7.52002 22.4528 8.20002 21.3285 9.44002C20.1851 10.74 19.6515 11.74 19.2704 13.44C18.2414 18 20.1279 22.38 23.9392 24.28C25.1207 24.88 25.2731 24.9 27.6552 24.9C29.7895 24.9 30.2849 24.84 31.2377 24.42C32.5717 23.86 34.3439 22.22 35.049 20.86L35.5445 19.88L34.02 18.94C33.1815 18.42 32.4192 18 32.343 18C32.2668 18 31.9428 18.4 31.5998 18.88C30.8376 20.04 29.8085 20.74 28.5508 21C27.4265 21.22 26.6261 21.1 25.6543 20.58C24.5109 19.98 23.3675 18.4 23.3675 17.4C23.3675 17 23.4437 17 29.6561 17H35.9446V15.32C35.9446 11.48 34.2486 8.64002 31.0853 7.18002C29.7323 6.54002 26.588 6.44002 25.0445 6.98002ZM30.1896 10.88C30.6851 11.24 31.1615 11.82 31.4664 12.48L31.9619 13.5L27.7314 13.56C25.4065 13.58 23.4628 13.56 23.4056 13.5C23.1388 13.22 24.5109 11.44 25.4637 10.84C26.4356 10.22 26.6071 10.18 27.9601 10.24C29.1797 10.3 29.5227 10.38 30.1896 10.88Z" fill="#ADADAD"></path><path d="M59.5935 6.9C57.1352 7.62 54.8675 9.52 53.9338 11.66C53.2668 13.22 52.981 15.62 53.2668 17.44C54.01 22.18 57.3448 25 62.2232 25C65.0817 25 66.9873 24.28 68.8358 22.54C69.9029 21.52 70.6271 20.24 71.1035 18.52C71.5036 17.06 71.4084 13.78 70.932 12.4C70.1507 10.14 68.0735 8.04 65.7296 7.16C64.2813 6.6 61.0799 6.48 59.5935 6.9ZM64.2432 11.38C66.9111 12.62 67.7877 16.36 65.9964 18.84C64.7196 20.6 62.0327 21.26 60.2223 20.26C59.2314 19.7 58.1643 18.46 57.8594 17.5C57.4782 16.3 57.7069 14.16 58.2977 13.22C59.6507 11.08 61.9946 10.36 64.2432 11.38Z" fill="#ADADAD"></path><path d="M35.8112 7.28C35.8684 7.42 37.3929 11.38 39.2033 16.08L42.5 24.62L44.5771 24.56L46.6543 24.5L49.8748 16.2C51.647 11.64 53.1524 7.7 53.2096 7.44L53.3239 6.98L50.9991 7.04L48.6552 7.1L46.6352 12.74C45.5299 15.84 44.5581 18.32 44.5009 18.24C44.4247 18.16 43.4909 15.6 42.4047 12.54L40.4229 7H38.0599C36.1543 7 35.735 7.06 35.8112 7.28Z" fill="#ADADAD"></path><path d="M79.9646 12.46C79.9646 15.54 80.0599 18.44 80.1742 19.1C80.5935 21.54 81.8321 23.22 83.9474 24.28C85.167 24.88 85.3004 24.9 87.7777 24.9C90.1978 24.9 90.4265 24.86 91.4936 24.34C93.6089 23.3 94.9619 21.48 95.3811 19.1C95.4955 18.44 95.5907 15.54 95.5907 12.46V7.00002H93.4183H91.2268L91.1697 12.44C91.1125 17.66 91.0935 17.94 90.6742 18.74C90.0644 19.94 89.0354 20.46 87.4918 20.36C86.1198 20.28 85.3385 19.78 84.8049 18.66C84.4809 17.98 84.4428 17.3 84.3857 12.44L84.3285 7.00002H82.137H79.9646V12.46Z" fill="#ADADAD"></path></svg>