<svg xmlns:xlink="http://www.w3.org/1999/xlink" xmlns="http://www.w3.org/2000/svg" width="58" height="20" viewBox="0 0 58 20" fill="currentColor" class="h-[14px] w-auto min-720:h-20"><path d="M3.63491 14.2837C3.87837 14.9298 4.21543 15.4823 4.64617 15.941C5.0769 16.3999 5.58719 16.751 6.17704 16.9944C6.76695 17.2379 7.40833 17.3596 8.10123 17.3596C8.77542 17.3596 9.40741 17.2332 9.99732 16.9803C10.5872 16.7275 11.1022 16.3717 11.5422 15.9129C11.9823 15.4541 12.3241 14.9064 12.5676 14.2697C12.811 13.633 12.9327 12.9214 12.9327 12.1349V0H15.8821V19.6629H12.9608V17.8371C12.3054 18.5299 11.5329 19.0636 10.6434 19.4382C9.7538 19.8127 8.79413 20 7.76416 20C6.71542 20 5.73698 19.8174 4.82871 19.4522C3.92051 19.0871 3.13394 18.5675 2.46919 17.8933C1.80445 17.2191 1.28005 16.4093 0.896177 15.4635C0.512247 14.5178 0.320312 13.4645 0.320312 12.3034V0H3.26975V12.1349C3.26975 12.9214 3.39145 13.6376 3.63491 14.2837Z" fill="#ADADAD"></path><path d="M20.9699 0V7.16291C21.6253 6.50749 22.3838 5.98787 23.2452 5.60394C24.1066 5.22001 25.0429 5.02808 26.0541 5.02808C27.1029 5.02808 28.0859 5.22467 29.0036 5.61793C29.9212 6.01118 30.717 6.54491 31.3912 7.2191C32.0654 7.89329 32.5991 8.68912 32.9924 9.60672C33.3856 10.5244 33.5822 11.4981 33.5822 12.5281C33.5822 13.558 33.3856 14.5271 32.9924 15.4353C32.5991 16.3436 32.0654 17.1348 31.3912 17.8089C30.717 18.4831 29.9212 19.0168 29.0036 19.4101C28.0859 19.8033 27.1028 19.9999 26.0541 19.9999C25.0429 19.9999 24.1019 19.808 23.2311 19.4241C22.3603 19.0402 21.5972 18.5205 20.9418 17.8651V19.6629H18.1328V0H20.9699ZM21.2929 14.4663C21.5457 15.0656 21.8968 15.5899 22.3463 16.0394C22.7957 16.4888 23.3201 16.8446 23.9193 17.1068C24.5186 17.369 25.1646 17.5001 25.8575 17.5001C26.5317 17.5001 27.1684 17.369 27.7676 17.1068C28.3669 16.8446 28.8865 16.4889 29.3266 16.0394C29.7667 15.59 30.1178 15.0656 30.38 14.4663C30.6422 13.8671 30.7732 13.221 30.7732 12.5281C30.7732 11.8352 30.6422 11.1845 30.38 10.5758C30.1178 9.96721 29.7667 9.43821 29.3266 8.98877C28.8865 8.53939 28.3669 8.18822 27.7676 7.93543C27.1683 7.68265 26.5317 7.55616 25.8575 7.55616C25.1834 7.55616 24.5467 7.68259 23.9475 7.93543C23.3482 8.18828 22.8239 8.53939 22.3744 8.98877C21.925 9.43821 21.5692 9.96721 21.307 10.5758C21.0448 11.1845 20.9137 11.8352 20.9137 12.5281C20.9137 13.221 21.0401 13.8671 21.2929 14.4663Z" fill="#ADADAD"></path><path d="M35.1789 9.63485C35.5534 8.73597 36.0684 7.9448 36.7238 7.26128C37.3792 6.57776 38.1564 6.03938 39.0553 5.64612C39.9542 5.25287 40.928 5.05627 41.9766 5.05627C43.0066 5.05627 43.9617 5.24355 44.8418 5.61803C45.722 5.99258 46.4804 6.51225 47.1171 7.17706C47.7538 7.84181 48.2501 8.62838 48.6058 9.53658C48.9617 10.4449 49.1395 11.4327 49.1395 12.5001V13.4271H37.4823C37.5759 14.0076 37.7632 14.546 38.0441 15.0422C38.325 15.5384 38.6761 15.9692 39.0974 16.3343C39.5188 16.6996 39.9963 16.9852 40.53 17.1911C41.0638 17.3971 41.6302 17.5001 42.2295 17.5001C43.9336 17.5001 45.3101 16.7978 46.3587 15.3933L48.4093 16.9101C47.6977 17.8652 46.8176 18.6143 45.7689 19.1573C44.7201 19.7004 43.5404 19.9719 42.2295 19.9719C41.1621 19.9719 40.1649 19.7846 39.238 19.4101C38.311 19.0356 37.5058 18.5112 36.8223 17.8371C36.1387 17.1629 35.6004 16.3717 35.2071 15.4635C34.8138 14.5553 34.6172 13.5674 34.6172 12.5C34.6171 11.4888 34.8044 10.5337 35.1789 9.63485ZM39.1255 8.52526C38.3296 9.19007 37.8006 10.0749 37.5385 11.1798H46.2745C46.031 10.0749 45.5113 9.19007 44.7154 8.52526C43.9195 7.86051 42.9879 7.52811 41.9205 7.52811C40.8531 7.52811 39.9214 7.86051 39.1255 8.52526Z" fill="#ADADAD"></path><path d="M54.4469 8.84824C53.8477 9.50366 53.5481 10.3932 53.5481 11.5168V19.6629H50.7109V5.33705H53.5199V7.10672C53.8757 6.52619 54.3392 6.06737 54.9104 5.7303C55.4815 5.39317 56.1604 5.22461 56.9469 5.22461H57.93V7.86507H56.7503C55.814 7.86513 55.0462 8.19281 54.4469 8.84824Z" fill="#ADADAD"></path></svg>